<?xml version="1.0" standalone="no"?>
<!DOCTYPE svg PUBLIC "-//W3C//DTD SVG 20010904//EN"
 "http://www.w3.org/TR/2001/REC-SVG-20010904/DTD/svg10.dtd">
<svg version="1.0" xmlns="http://www.w3.org/2000/svg"
 width="820.000000pt" height="424.000000pt" viewBox="0 0 820.000000 424.000000"
 preserveAspectRatio="xMidYMid meet">

<g transform="translate(0.000000,424.000000) scale(0.100000,-0.100000)"
fill="#d8be4c" stroke="none">
<path d="M3872 4215 c-537 -94 -994 -369 -1331 -802 -90 -115 -160 -229 -220
-353 -34 -70 -39 -86 -26 -92 8 -5 58 -7 112 -6 l97 3 34 60 c151 262 319 459
530 617 343 259 727 389 1149 389 433 -1 801 -123 1148 -382 240 -180 407
-377 562 -667 26 -48 62 -103 81 -122 19 -19 46 -53 60 -75 14 -22 28 -42 29
-45 2 -2 29 22 59 54 55 57 55 58 43 94 -6 20 -31 78 -55 128 -241 507 -644
883 -1164 1087 -130 51 -261 86 -432 116 -171 31 -490 28 -676 -4z"/>
<path d="M937 3254 c-47 -54 -84 -74 -162 -89 l-59 -11 -17 -56 c-9 -31 -19
-73 -23 -92 l-7 -36 43 0 c24 0 67 7 96 14 28 8 52 12 52 8 0 -6 -26 -108 -65
-257 -13 -49 -47 -178 -75 -285 -27 -107 -66 -254 -85 -327 -19 -72 -35 -136
-35 -142 0 -7 46 -11 139 -11 135 0 139 1 145 23 16 56 70 261 92 352 14 55
32 124 40 153 l15 52 120 0 c110 0 120 -2 115 -17 -3 -10 -30 -115 -60 -233
-31 -118 -62 -238 -71 -265 -8 -28 -15 -53 -15 -58 0 -4 64 -6 141 -5 l142 3
33 125 c19 69 60 229 93 355 33 127 73 282 90 345 16 63 51 194 76 290 25 96
48 183 51 193 5 16 -6 17 -139 17 l-143 0 -34 -132 c-18 -73 -48 -189 -65
-258 l-32 -125 -122 -3 -123 -3 8 23 c4 13 17 64 30 113 12 50 38 150 58 223
20 74 36 140 36 148 0 11 -23 14 -122 14 l-123 -1 -38 -45z"/>
<path d="M3895 3288 c-14 -48 -30 -107 -75 -282 -28 -109 -53 -203 -56 -207
-2 -4 -25 6 -50 24 -42 30 -52 32 -127 32 -68 0 -92 -5 -139 -27 -175 -82
-297 -304 -298 -545 0 -201 99 -323 262 -323 66 0 134 25 181 68 18 16 18 15
12 -21 l-7 -37 116 0 115 0 11 43 c6 23 21 83 35 132 13 50 43 162 65 250 23
88 66 252 95 365 105 402 135 520 135 530 0 16 -270 13 -275 -2z m-234 -674
c20 -21 24 -38 27 -99 7 -130 -53 -273 -134 -321 -51 -30 -67 -30 -98 1 -50
50 -43 203 15 322 54 111 136 154 190 97z"/>
<path d="M4660 3293 c0 -17 -73 -84 -113 -105 -21 -10 -61 -22 -88 -25 l-49
-6 -15 -56 c-9 -31 -19 -70 -24 -88 -5 -18 -6 -34 -3 -37 13 -13 101 -4 168
18 19 6 17 -8 -36 -211 -31 -120 -85 -326 -119 -458 -34 -132 -69 -262 -77
-289 -8 -27 -14 -53 -14 -58 0 -5 64 -7 142 -6 l142 3 65 248 c45 171 69 247
78 247 8 0 36 -22 62 -48 85 -85 94 -146 61 -442 -11 -101 -11 -122 3 -171 46
-156 260 -227 426 -142 53 28 56 31 53 64 -2 18 -10 59 -19 90 l-15 57 -61 -5
c-57 -5 -64 -3 -86 20 -23 25 -24 30 -25 224 -1 181 -3 203 -24 254 -12 32
-41 78 -64 103 -22 26 -39 48 -37 50 2 1 24 11 48 20 169 66 291 225 299 388
9 169 -76 294 -233 345 -58 18 -445 32 -445 16z m291 -203 c100 -28 134 -159
73 -281 -42 -84 -120 -129 -225 -129 -38 0 -41 2 -35 23 4 12 27 103 53 202
26 99 52 183 57 187 15 10 34 10 77 -2z"/>
<path d="M6980 3173 c-18 -71 -57 -220 -87 -333 -29 -113 -78 -302 -109 -420
-30 -118 -68 -263 -85 -322 -16 -59 -29 -112 -29 -118 0 -6 51 -10 138 -10
l139 0 32 127 c18 70 35 130 37 133 12 11 79 -38 96 -70 17 -31 19 -48 13
-166 -4 -82 -2 -146 4 -170 14 -52 66 -112 115 -135 75 -34 250 -18 287 27 9
11 9 31 -2 89 -17 98 -18 99 -63 86 -40 -10 -78 -2 -92 21 -4 7 -9 58 -10 113
-2 113 -17 166 -65 226 -17 22 -30 41 -28 43 2 2 27 11 56 20 111 37 209 120
253 217 29 64 27 172 -3 221 -43 71 -118 108 -216 108 -44 0 -71 -7 -123 -34
-61 -30 -68 -32 -68 -15 0 14 92 386 116 472 5 16 -6 17 -133 17 l-139 0 -34
-127z m358 -525 c16 -14 15 -51 -2 -91 -29 -69 -157 -147 -242 -147 -32 0 -35
2 -28 23 49 158 196 275 272 215z"/>
<path d="M1953 2846 c-62 -20 -105 -50 -171 -121 -110 -117 -165 -264 -166
-445 -1 -87 3 -113 20 -150 28 -60 69 -107 123 -142 38 -24 55 -28 113 -28 83
0 122 15 181 69 l44 41 24 -38 c35 -55 100 -85 169 -79 92 8 107 20 131 101
11 39 25 83 29 99 9 27 8 27 -36 27 -31 0 -46 5 -50 15 -4 9 7 68 24 133 16
64 53 205 80 311 28 107 48 199 46 203 -3 4 -61 8 -128 8 -133 0 -138 -2 -150
-54 l-7 -30 -22 26 c-54 62 -157 84 -254 54z m181 -239 c17 -24 21 -42 20
-105 -1 -140 -63 -271 -148 -315 -35 -18 -41 -19 -65 -6 -38 21 -51 55 -51
134 0 103 29 197 82 265 52 66 124 78 162 27z"/>
<path d="M3091 2844 c-19 -8 -54 -30 -78 -50 l-43 -35 7 46 6 46 -134 -3 -133
-3 -27 -105 c-72 -279 -191 -737 -195 -752 -5 -17 6 -18 134 -18 l139 0 11 38
c5 20 31 120 57 222 53 205 82 276 133 326 45 44 90 58 139 45 20 -6 41 -7 45
-3 4 4 20 61 37 127 23 91 28 121 18 127 -19 12 -79 8 -116 -8z"/>
<path d="M5584 2845 c-165 -52 -296 -207 -340 -401 -36 -165 -1 -317 95 -407
68 -64 120 -80 233 -75 120 5 201 42 292 131 91 90 138 185 158 324 29 200
-48 367 -196 422 -65 24 -175 27 -242 6z m153 -224 c19 -29 23 -47 23 -118 0
-235 -172 -429 -250 -283 -18 34 -16 160 3 237 43 167 163 255 224 164z"/>
<path d="M6424 2836 c-104 -38 -192 -117 -265 -236 -56 -91 -88 -252 -70 -351
23 -131 107 -239 212 -274 74 -25 235 -19 258 9 11 14 51 155 51 183 0 19 -2
20 -52 6 -151 -40 -222 35 -204 215 22 213 185 331 327 238 22 -15 42 -26 43
-24 2 2 14 45 27 96 l23 94 -24 18 c-68 52 -225 64 -326 26z"/>
<path d="M6111 1843 c-48 -342 -188 -656 -416 -938 -104 -128 -199 -218 -362
-341 -152 -115 -383 -226 -591 -284 -413 -116 -826 -96 -1222 61 -418 166
-766 476 -979 872 -93 173 -169 393 -206 597 -4 23 -8 25 -67 26 -35 0 -80 6
-101 13 -21 7 -41 10 -45 7 -8 -9 14 -140 44 -259 98 -381 292 -715 576 -992
347 -339 740 -530 1221 -594 118 -16 422 -14 546 4 705 103 1295 528 1610
1161 81 163 151 365 180 519 28 148 28 152 -11 160 -18 4 -61 22 -95 41 -34
19 -63 34 -65 34 -2 0 -10 -39 -17 -87z"/>
<path d="M3531 1360 c-56 -13 -113 -63 -145 -124 -53 -102 -36 -258 35 -323
56 -51 166 -73 263 -53 l59 12 -7 56 c-4 31 -8 58 -10 60 -2 2 -23 -2 -46 -8
-43 -12 -98 -7 -131 10 -30 17 -49 64 -49 124 0 69 12 95 55 125 29 20 44 23
87 19 29 -3 60 -7 68 -9 11 -3 16 9 20 49 5 44 3 55 -11 63 -21 11 -140 10
-188 -1z"/>
<path d="M4773 1363 l-33 -4 0 -250 0 -249 161 0 160 0 -3 53 -3 52 -87 3 -88
3 0 49 0 50 85 0 85 0 0 50 0 50 -85 0 -85 0 0 45 0 44 88 3 87 3 3 46 3 46
-47 7 c-49 6 -185 6 -241 -1z"/>
<path d="M3865 1119 c-49 -132 -91 -245 -93 -250 -2 -5 26 -9 63 -9 l66 0 19
45 20 46 87 -3 88 -3 19 -42 19 -43 69 0 c37 0 68 2 68 4 0 5 -78 225 -132
371 l-45 120 -79 3 -79 3 -90 -242z m189 17 c14 -41 26 -79 26 -85 0 -7 -22
-11 -55 -11 -30 0 -55 3 -55 7 0 7 54 163 56 163 1 0 13 -33 28 -74z"/>
<path d="M4350 1110 l0 -250 65 0 65 0 0 100 0 100 85 0 85 0 0 50 0 50 -85 0
-85 0 0 50 0 50 90 0 90 0 0 50 0 50 -155 0 -155 0 0 -250z"/>
</g>
</svg>
